<?xml version="1.0" encoding="UTF-8"?>
<svg id="Camada_1" data-name="Camada 1" xmlns="http://www.w3.org/2000/svg" viewBox="0 0 72.03 32.57">
  <defs>
    <style>
      .cls-1 {
        fill: #f15a24;
      }
    </style>
  </defs>
  <path d="m1.13,4.28C4.72-.59,13.95-.14,19.42.19c15.02,1.52,33.09,7.52,44.11,18.13,2.07,2.26,4.61,5.39,3.5,8.63.67-3.26-1.93-5.95-4.13-7.98C51.51,9.46,33.84,3.76,19.27,1.62,13.85,1.12,5.19-.02,1.13,4.28h0Z"/>
  <path class="cls-1" d="m12.63,12.6c-1.53-3.13-2.97-6.89-4.44-9.94L0,29.69l9.92-.03,3.44-11.83c.18-.79.39-1.59.6-2.39-.51-.93-.86-1.88-1.33-2.84Z"/>
  <path class="cls-1" d="m21.33,29.84L9.33,2.66h11.89l5.75,18.19,6.06-18.19h11.78l-12.5,27.18h-10.99Z"/>
  <path class="cls-1" d="m45.93,2.66c-.73,1.53-1.43,2.97-2.19,4.5-.39.78-.77,1.57-1.17,2.36h7.5c.81-1.89,1.94-2.86,3.55-4.36.64-.6,2.78-1.94,3.46-2.5h-11.15Z"/>
  <path class="cls-1" d="m58.4,3.53c-.18-.24-.53-.29-.79-.12-.79.5-2.38,1.52-3.12,2.16-1.76,1.52-2.41,2.18-3.43,4.15-.05.1-8.13,19.97-8.13,19.97h.6c.09-.15,1.53-2.47,1.83-2.79.05-.05.72-.73,1.49-1.29.7-.51,1.51-.9,1.79-.96.04-.01.94-.26,1.58-.15.42.01,1.09.41,1.44.7.23.19.57.56.71.83.03.04.23.58.28.95.12.43.06,1.08.1,1.53.03.37-.09.79-.1,1.19h.48s6.22-15.89,7.53-19.23c.16-.4.19-.84.08-1.24-.58-2.33-1.05-3.93-2.36-5.68Z"/>
  <path class="cls-1" d="m58.84,2.73c1.15,1.87,2.84,4.2,2.81,6.72h7.44l2.93-6.72h-13.18Z"/>
  <path d="m67,27.07c-2.14,5.97-12.99,5.65-18.23,5.36-15.19-1.32-34.72-7.75-45.45-18.94C1.25,11.14-1.16,7.34,1.09,4.38c-1.8,3.09.71,6.36,2.89,8.48,11.03,10.03,30.27,16.21,44.92,18.12,5.12.44,15.44,1.54,18.09-3.92h0Z"/>
</svg>