<svg width="241" height="34" viewBox="0 0 241 34" fill="none" xmlns="http://www.w3.org/2000/svg">
<path d="M24.8608 0.90909V30H19.5483L6.89205 11.6903H6.67898V30H0.528409V0.90909H5.92614L18.483 19.2045H18.7386V0.90909H24.8608ZM35.1982 0.90909L42.2294 23.0114H42.4993L49.5447 0.90909H56.3629L46.3345 30H38.4084L28.3658 0.90909H35.1982ZM58.7564 5.98011V0.90909H82.6484V5.98011H73.7422V30H67.6626V5.98011H58.7564Z" fill="#FF7400"/>
<path d="M99.2251 18.3636V30H97.6115L91.6967 21.4659H91.5888V30H89.8331V18.3636H91.4581L97.3786 26.9091H97.4865V18.3636H99.2251ZM105.411 30.1761C104.551 30.1761 103.811 29.9924 103.19 29.625C102.572 29.2538 102.095 28.733 101.758 28.0625C101.424 27.3883 101.258 26.5985 101.258 25.6932C101.258 24.7992 101.424 24.0114 101.758 23.3295C102.095 22.6477 102.565 22.1155 103.167 21.733C103.773 21.3504 104.481 21.1591 105.292 21.1591C105.784 21.1591 106.262 21.2405 106.724 21.4034C107.186 21.5663 107.601 21.822 107.968 22.1705C108.335 22.5189 108.625 22.9716 108.837 23.5284C109.049 24.0814 109.156 24.7538 109.156 25.5455V26.1477H102.218V24.875H107.491C107.491 24.428 107.4 24.0322 107.218 23.6875C107.036 23.339 106.781 23.0644 106.451 22.8636C106.125 22.6629 105.743 22.5625 105.303 22.5625C104.826 22.5625 104.409 22.6799 104.053 22.9148C103.701 23.1458 103.428 23.4489 103.235 23.8239C103.046 24.1951 102.951 24.5985 102.951 25.0341V26.0284C102.951 26.6117 103.053 27.108 103.258 27.517C103.466 27.9261 103.756 28.2386 104.127 28.4545C104.498 28.6667 104.932 28.7727 105.428 28.7727C105.75 28.7727 106.044 28.7273 106.309 28.6364C106.574 28.5417 106.803 28.4015 106.996 28.2159C107.19 28.0303 107.337 27.8011 107.44 27.5284L109.048 27.8182C108.919 28.2917 108.688 28.7064 108.354 29.0625C108.025 29.4148 107.61 29.6894 107.11 29.8864C106.614 30.0795 106.048 30.1761 105.411 30.1761ZM115.114 21.2727V22.6364H110.347V21.2727H115.114ZM111.626 19.1818H113.325V27.4375C113.325 27.767 113.374 28.0152 113.472 28.1818C113.571 28.3447 113.698 28.4564 113.853 28.517C114.012 28.5739 114.184 28.6023 114.37 28.6023C114.506 28.6023 114.626 28.5928 114.728 28.5739C114.83 28.5549 114.91 28.5398 114.967 28.5284L115.273 29.9318C115.175 29.9697 115.035 30.0076 114.853 30.0455C114.671 30.0871 114.444 30.1098 114.171 30.1136C113.724 30.1212 113.308 30.0417 112.921 29.875C112.535 29.7083 112.222 29.4508 111.984 29.1023C111.745 28.7538 111.626 28.3163 111.626 27.7898V19.1818ZM118.886 30L116.317 21.2727H118.073L119.783 27.6818H119.869L121.585 21.2727H123.34L125.045 27.6534H125.13L126.829 21.2727H128.585L126.022 30H124.289L122.516 23.6989H122.386L120.613 30H118.886ZM133.607 30.1761C132.789 30.1761 132.075 29.9886 131.465 29.6136C130.855 29.2386 130.382 28.714 130.045 28.0398C129.708 27.3655 129.539 26.5777 129.539 25.6761C129.539 24.7708 129.708 23.9792 130.045 23.3011C130.382 22.6231 130.855 22.0966 131.465 21.7216C132.075 21.3466 132.789 21.1591 133.607 21.1591C134.425 21.1591 135.139 21.3466 135.749 21.7216C136.359 22.0966 136.833 22.6231 137.17 23.3011C137.507 23.9792 137.675 24.7708 137.675 25.6761C137.675 26.5777 137.507 27.3655 137.17 28.0398C136.833 28.714 136.359 29.2386 135.749 29.6136C135.139 29.9886 134.425 30.1761 133.607 30.1761ZM133.613 28.75C134.143 28.75 134.583 28.6098 134.931 28.3295C135.28 28.0492 135.537 27.6761 135.704 27.2102C135.874 26.7443 135.96 26.2311 135.96 25.6705C135.96 25.1136 135.874 24.6023 135.704 24.1364C135.537 23.6667 135.28 23.2898 134.931 23.0057C134.583 22.7216 134.143 22.5795 133.613 22.5795C133.079 22.5795 132.636 22.7216 132.283 23.0057C131.935 23.2898 131.675 23.6667 131.505 24.1364C131.338 24.6023 131.255 25.1136 131.255 25.6705C131.255 26.2311 131.338 26.7443 131.505 27.2102C131.675 27.6761 131.935 28.0492 132.283 28.3295C132.636 28.6098 133.079 28.75 133.613 28.75ZM139.572 30V21.2727H141.214V22.6591H141.305C141.464 22.1894 141.744 21.8201 142.146 21.5511C142.551 21.2784 143.009 21.142 143.521 21.142C143.627 21.142 143.752 21.1458 143.896 21.1534C144.043 21.161 144.159 21.1705 144.242 21.1818V22.8068C144.174 22.7879 144.053 22.767 143.879 22.7443C143.704 22.7178 143.53 22.7045 143.356 22.7045C142.954 22.7045 142.596 22.7898 142.282 22.9602C141.971 23.1269 141.725 23.3598 141.543 23.6591C141.362 23.9545 141.271 24.2917 141.271 24.6705V30H139.572ZM147.275 27.0398L147.263 24.9659H147.559L151.036 21.2727H153.07L149.104 25.4773H148.837L147.275 27.0398ZM145.712 30V18.3636H147.411V30H145.712ZM151.224 30L148.099 25.8523L149.269 24.6648L153.309 30H151.224ZM154.619 30V21.2727H156.317V30H154.619ZM155.477 19.9261C155.181 19.9261 154.927 19.8277 154.715 19.6307C154.507 19.4299 154.403 19.1913 154.403 18.9148C154.403 18.6345 154.507 18.3958 154.715 18.1989C154.927 17.9981 155.181 17.8977 155.477 17.8977C155.772 17.8977 156.024 17.9981 156.232 18.1989C156.444 18.3958 156.55 18.6345 156.55 18.9148C156.55 19.1913 156.444 19.4299 156.232 19.6307C156.024 19.8277 155.772 19.9261 155.477 19.9261ZM160.302 24.8182V30H158.603V21.2727H160.234V22.6932H160.342C160.542 22.2311 160.857 21.8598 161.285 21.5795C161.717 21.2992 162.26 21.1591 162.915 21.1591C163.51 21.1591 164.031 21.2841 164.478 21.5341C164.925 21.7803 165.272 22.1477 165.518 22.6364C165.764 23.125 165.887 23.7292 165.887 24.4489V30H164.188V24.6534C164.188 24.0208 164.023 23.5265 163.694 23.1705C163.364 22.8106 162.912 22.6307 162.336 22.6307C161.942 22.6307 161.592 22.7159 161.285 22.8864C160.982 23.0568 160.741 23.3068 160.563 23.6364C160.389 23.9621 160.302 24.3561 160.302 24.8182ZM171.825 33.4545C171.131 33.4545 170.535 33.3636 170.035 33.1818C169.539 33 169.133 32.7595 168.819 32.4602C168.504 32.161 168.27 31.8333 168.114 31.4773L169.575 30.875C169.677 31.0417 169.813 31.2178 169.984 31.4034C170.158 31.5928 170.393 31.7538 170.688 31.8864C170.987 32.0189 171.372 32.0852 171.842 32.0852C172.486 32.0852 173.018 31.928 173.438 31.6136C173.859 31.303 174.069 30.8068 174.069 30.125V28.4091H173.961C173.859 28.5947 173.711 28.8011 173.518 29.0284C173.328 29.2557 173.067 29.4527 172.734 29.6193C172.4 29.786 171.967 29.8693 171.433 29.8693C170.743 29.8693 170.122 29.7083 169.569 29.3864C169.02 29.0606 168.584 28.5814 168.262 27.9489C167.944 27.3125 167.785 26.5303 167.785 25.6023C167.785 24.6742 167.942 23.8788 168.256 23.2159C168.575 22.553 169.01 22.0455 169.563 21.6932C170.116 21.3371 170.743 21.1591 171.444 21.1591C171.986 21.1591 172.423 21.25 172.756 21.4318C173.09 21.6098 173.349 21.8182 173.535 22.0568C173.724 22.2955 173.87 22.5057 173.972 22.6875H174.097V21.2727H175.762V30.1932C175.762 30.9432 175.588 31.5587 175.239 32.0398C174.891 32.5208 174.419 32.8769 173.825 33.108C173.234 33.339 172.567 33.4545 171.825 33.4545ZM171.808 28.4602C172.296 28.4602 172.709 28.3466 173.046 28.1193C173.387 27.8883 173.645 27.5587 173.819 27.1307C173.997 26.6989 174.086 26.1818 174.086 25.5795C174.086 24.9924 173.999 24.4754 173.825 24.0284C173.65 23.5814 173.395 23.233 173.058 22.983C172.72 22.7292 172.304 22.6023 171.808 22.6023C171.296 22.6023 170.87 22.7348 170.529 23C170.188 23.2614 169.931 23.6174 169.756 24.0682C169.586 24.5189 169.501 25.0227 169.501 25.5795C169.501 26.1515 169.588 26.6534 169.762 27.0852C169.936 27.517 170.194 27.8542 170.535 28.0966C170.879 28.339 171.304 28.4602 171.808 28.4602ZM183.428 18.3636L186.667 27.8409H186.798L190.036 18.3636H191.934L187.746 30H185.718L181.531 18.3636H183.428ZM197.552 21.2727V22.6364H192.785V21.2727H197.552ZM194.063 19.1818H195.762V27.4375C195.762 27.767 195.811 28.0152 195.91 28.1818C196.008 28.3447 196.135 28.4564 196.29 28.517C196.45 28.5739 196.622 28.6023 196.808 28.6023C196.944 28.6023 197.063 28.5928 197.165 28.5739C197.268 28.5549 197.347 28.5398 197.404 28.5284L197.711 29.9318C197.612 29.9697 197.472 30.0076 197.29 30.0455C197.109 30.0871 196.881 30.1098 196.609 30.1136C196.162 30.1212 195.745 30.0417 195.359 29.875C194.972 29.7083 194.66 29.4508 194.421 29.1023C194.183 28.7538 194.063 28.3163 194.063 27.7898V19.1818ZM203.013 30.1761C202.195 30.1761 201.481 29.9886 200.871 29.6136C200.262 29.2386 199.788 28.714 199.451 28.0398C199.114 27.3655 198.945 26.5777 198.945 25.6761C198.945 24.7708 199.114 23.9792 199.451 23.3011C199.788 22.6231 200.262 22.0966 200.871 21.7216C201.481 21.3466 202.195 21.1591 203.013 21.1591C203.832 21.1591 204.546 21.3466 205.156 21.7216C205.765 22.0966 206.239 22.6231 206.576 23.3011C206.913 23.9792 207.082 24.7708 207.082 25.6761C207.082 26.5777 206.913 27.3655 206.576 28.0398C206.239 28.714 205.765 29.2386 205.156 29.6136C204.546 29.9886 203.832 30.1761 203.013 30.1761ZM203.019 28.75C203.549 28.75 203.989 28.6098 204.337 28.3295C204.686 28.0492 204.943 27.6761 205.11 27.2102C205.281 26.7443 205.366 26.2311 205.366 25.6705C205.366 25.1136 205.281 24.6023 205.11 24.1364C204.943 23.6667 204.686 23.2898 204.337 23.0057C203.989 22.7216 203.549 22.5795 203.019 22.5795C202.485 22.5795 202.042 22.7216 201.69 23.0057C201.341 23.2898 201.082 23.6667 200.911 24.1364C200.745 24.6023 200.661 25.1136 200.661 25.6705C200.661 26.2311 200.745 26.7443 200.911 27.2102C201.082 27.6761 201.341 28.0492 201.69 28.3295C202.042 28.6098 202.485 28.75 203.019 28.75ZM210.677 18.3636V30H208.978V18.3636H210.677ZM216.724 30.1761C215.864 30.1761 215.123 29.9924 214.502 29.625C213.885 29.2538 213.407 28.733 213.07 28.0625C212.737 27.3883 212.57 26.5985 212.57 25.6932C212.57 24.7992 212.737 24.0114 213.07 23.3295C213.407 22.6477 213.877 22.1155 214.479 21.733C215.085 21.3504 215.794 21.1591 216.604 21.1591C217.097 21.1591 217.574 21.2405 218.036 21.4034C218.498 21.5663 218.913 21.822 219.281 22.1705C219.648 22.5189 219.938 22.9716 220.15 23.5284C220.362 24.0814 220.468 24.7538 220.468 25.5455V26.1477H213.531V24.875H218.803C218.803 24.428 218.712 24.0322 218.531 23.6875C218.349 23.339 218.093 23.0644 217.763 22.8636C217.438 22.6629 217.055 22.5625 216.616 22.5625C216.138 22.5625 215.722 22.6799 215.366 22.9148C215.013 23.1458 214.741 23.4489 214.548 23.8239C214.358 24.1951 214.263 24.5985 214.263 25.0341V26.0284C214.263 26.6117 214.366 27.108 214.57 27.517C214.779 27.9261 215.068 28.2386 215.44 28.4545C215.811 28.6667 216.245 28.7727 216.741 28.7727C217.063 28.7727 217.356 28.7273 217.621 28.6364C217.887 28.5417 218.116 28.4015 218.309 28.2159C218.502 28.0303 218.65 27.8011 218.752 27.5284L220.36 27.8182C220.231 28.2917 220 28.7064 219.667 29.0625C219.337 29.4148 218.923 29.6894 218.423 29.8864C217.926 30.0795 217.36 30.1761 216.724 30.1761ZM225.62 30.1705C224.915 30.1705 224.287 29.9905 223.734 29.6307C223.184 29.267 222.753 28.75 222.438 28.0795C222.128 27.4053 221.972 26.5966 221.972 25.6534C221.972 24.7102 222.129 23.9034 222.444 23.233C222.762 22.5625 223.198 22.0492 223.751 21.6932C224.304 21.3371 224.931 21.1591 225.631 21.1591C226.173 21.1591 226.609 21.25 226.938 21.4318C227.272 21.6098 227.529 21.8182 227.711 22.0568C227.897 22.2955 228.04 22.5057 228.143 22.6875H228.245V18.3636H229.944V30H228.285V28.642H228.143C228.04 28.8277 227.893 29.0398 227.7 29.2784C227.51 29.517 227.249 29.7254 226.915 29.9034C226.582 30.0814 226.15 30.1705 225.62 30.1705ZM225.995 28.7216C226.484 28.7216 226.897 28.5928 227.234 28.3352C227.575 28.0739 227.832 27.7121 228.006 27.25C228.184 26.7879 228.273 26.25 228.273 25.6364C228.273 25.0303 228.186 24.5 228.012 24.0455C227.838 23.5909 227.582 23.2367 227.245 22.983C226.908 22.7292 226.491 22.6023 225.995 22.6023C225.484 22.6023 225.058 22.7348 224.717 23C224.376 23.2652 224.118 23.6269 223.944 24.0852C223.773 24.5436 223.688 25.0606 223.688 25.6364C223.688 26.2197 223.775 26.7443 223.95 27.2102C224.124 27.6761 224.381 28.0455 224.722 28.3182C225.067 28.5871 225.491 28.7216 225.995 28.7216ZM236.045 30.1761C235.227 30.1761 234.513 29.9886 233.903 29.6136C233.293 29.2386 232.819 28.714 232.482 28.0398C232.145 27.3655 231.977 26.5777 231.977 25.6761C231.977 24.7708 232.145 23.9792 232.482 23.3011C232.819 22.6231 233.293 22.0966 233.903 21.7216C234.513 21.3466 235.227 21.1591 236.045 21.1591C236.863 21.1591 237.577 21.3466 238.187 21.7216C238.797 22.0966 239.27 22.6231 239.607 23.3011C239.944 23.9792 240.113 24.7708 240.113 25.6761C240.113 26.5777 239.944 27.3655 239.607 28.0398C239.27 28.714 238.797 29.2386 238.187 29.6136C237.577 29.9886 236.863 30.1761 236.045 30.1761ZM236.05 28.75C236.581 28.75 237.02 28.6098 237.369 28.3295C237.717 28.0492 237.975 27.6761 238.141 27.2102C238.312 26.7443 238.397 26.2311 238.397 25.6705C238.397 25.1136 238.312 24.6023 238.141 24.1364C237.975 23.6667 237.717 23.2898 237.369 23.0057C237.02 22.7216 236.581 22.5795 236.05 22.5795C235.516 22.5795 235.073 22.7216 234.721 23.0057C234.372 23.2898 234.113 23.6667 233.942 24.1364C233.776 24.6023 233.692 25.1136 233.692 25.6705C233.692 26.2311 233.776 26.7443 233.942 27.2102C234.113 27.6761 234.372 28.0492 234.721 28.3295C235.073 28.6098 235.516 28.75 236.05 28.75Z" fill="#FFB271"/>
</svg>
