<svg width="128" height="50" viewBox="0 0 128 50" fill="none" xmlns="http://www.w3.org/2000/svg">
<path d="M50.892 0.90909V30H45.5795L32.9233 11.6903H32.7102V30H26.5597V0.90909H31.9574L44.5142 19.2045H44.7699V0.90909H50.892ZM61.2294 0.90909L68.2607 23.0114H68.5305L75.576 0.90909H82.3942L72.3658 30H64.4396L54.397 0.90909H61.2294ZM84.7876 5.98011V0.90909H108.68V5.98011H99.7734V30H93.6939V5.98011H84.7876Z" fill="#FF7400"/>
<path d="M10.3736 37.3636V49H8.75994L2.84517 40.4659H2.73722V49H0.981534V37.3636H2.60653L8.52699 45.9091H8.63494V37.3636H10.3736ZM16.5597 49.1761C15.6998 49.1761 14.9593 48.9924 14.3381 48.625C13.7206 48.2538 13.2434 47.733 12.9062 47.0625C12.5729 46.3883 12.4062 45.5985 12.4062 44.6932C12.4062 43.7992 12.5729 43.0114 12.9062 42.3295C13.2434 41.6477 13.7131 41.1155 14.3153 40.733C14.9214 40.3504 15.6297 40.1591 16.4403 40.1591C16.9328 40.1591 17.41 40.2405 17.8722 40.4034C18.3343 40.5663 18.7491 40.822 19.1165 41.1705C19.4839 41.5189 19.7737 41.9716 19.9858 42.5284C20.1979 43.0814 20.304 43.7538 20.304 44.5455V45.1477H13.3665V43.875H18.6392C18.6392 43.428 18.5483 43.0322 18.3665 42.6875C18.1847 42.339 17.929 42.0644 17.5994 41.8636C17.2737 41.6629 16.8911 41.5625 16.4517 41.5625C15.9744 41.5625 15.5578 41.6799 15.2017 41.9148C14.8494 42.1458 14.5767 42.4489 14.3835 42.8239C14.1941 43.1951 14.0994 43.5985 14.0994 44.0341V45.0284C14.0994 45.6117 14.2017 46.108 14.4062 46.517C14.6146 46.9261 14.9044 47.2386 15.2756 47.4545C15.6468 47.6667 16.0805 47.7727 16.5767 47.7727C16.8987 47.7727 17.1922 47.7273 17.4574 47.6364C17.7225 47.5417 17.9517 47.4015 18.1449 47.2159C18.3381 47.0303 18.4858 46.8011 18.5881 46.5284L20.196 46.8182C20.0672 47.2917 19.8362 47.7064 19.5028 48.0625C19.1733 48.4148 18.7585 48.6894 18.2585 48.8864C17.7623 49.0795 17.196 49.1761 16.5597 49.1761ZM26.2628 40.2727V41.6364H21.4957V40.2727H26.2628ZM22.7741 38.1818H24.473V46.4375C24.473 46.767 24.5223 47.0152 24.6207 47.1818C24.7192 47.3447 24.8461 47.4564 25.0014 47.517C25.1605 47.5739 25.3329 47.6023 25.5185 47.6023C25.6548 47.6023 25.7741 47.5928 25.8764 47.5739C25.9787 47.5549 26.0582 47.5398 26.1151 47.5284L26.4219 48.9318C26.3234 48.9697 26.1832 49.0076 26.0014 49.0455C25.8196 49.0871 25.5923 49.1098 25.3196 49.1136C24.8726 49.1212 24.456 49.0417 24.0696 48.875C23.6832 48.7083 23.3707 48.4508 23.1321 48.1023C22.8935 47.7538 22.7741 47.3163 22.7741 46.7898V38.1818ZM30.0341 49L27.4659 40.2727H29.2216L30.9318 46.6818H31.017L32.733 40.2727H34.4886L36.1932 46.6534H36.2784L37.9773 40.2727H39.733L37.1705 49H35.4375L33.6648 42.6989H33.5341L31.7614 49H30.0341ZM44.7557 49.1761C43.9375 49.1761 43.2235 48.9886 42.6136 48.6136C42.0038 48.2386 41.5303 47.714 41.1932 47.0398C40.8561 46.3655 40.6875 45.5777 40.6875 44.6761C40.6875 43.7708 40.8561 42.9792 41.1932 42.3011C41.5303 41.6231 42.0038 41.0966 42.6136 40.7216C43.2235 40.3466 43.9375 40.1591 44.7557 40.1591C45.5739 40.1591 46.2879 40.3466 46.8977 40.7216C47.5076 41.0966 47.9811 41.6231 48.3182 42.3011C48.6553 42.9792 48.8239 43.7708 48.8239 44.6761C48.8239 45.5777 48.6553 46.3655 48.3182 47.0398C47.9811 47.714 47.5076 48.2386 46.8977 48.6136C46.2879 48.9886 45.5739 49.1761 44.7557 49.1761ZM44.7614 47.75C45.2917 47.75 45.7311 47.6098 46.0795 47.3295C46.428 47.0492 46.6856 46.6761 46.8523 46.2102C47.0227 45.7443 47.108 45.2311 47.108 44.6705C47.108 44.1136 47.0227 43.6023 46.8523 43.1364C46.6856 42.6667 46.428 42.2898 46.0795 42.0057C45.7311 41.7216 45.2917 41.5795 44.7614 41.5795C44.2273 41.5795 43.7841 41.7216 43.4318 42.0057C43.0833 42.2898 42.8239 42.6667 42.6534 43.1364C42.4867 43.6023 42.4034 44.1136 42.4034 44.6705C42.4034 45.2311 42.4867 45.7443 42.6534 46.2102C42.8239 46.6761 43.0833 47.0492 43.4318 47.3295C43.7841 47.6098 44.2273 47.75 44.7614 47.75ZM50.7202 49V40.2727H52.3622V41.6591H52.4531C52.6122 41.1894 52.8925 40.8201 53.294 40.5511C53.6993 40.2784 54.1577 40.142 54.669 40.142C54.7751 40.142 54.9001 40.1458 55.044 40.1534C55.1918 40.161 55.3073 40.1705 55.3906 40.1818V41.8068C55.3224 41.7879 55.2012 41.767 55.027 41.7443C54.8527 41.7178 54.6785 41.7045 54.5043 41.7045C54.1027 41.7045 53.7448 41.7898 53.4304 41.9602C53.1198 42.1269 52.8736 42.3598 52.6918 42.6591C52.5099 42.9545 52.419 43.2917 52.419 43.6705V49H50.7202ZM58.4233 46.0398L58.4119 43.9659H58.7074L62.1847 40.2727H64.2188L60.2528 44.4773H59.9858L58.4233 46.0398ZM56.8608 49V37.3636H58.5597V49H56.8608ZM62.3722 49L59.2472 44.8523L60.4176 43.6648L64.4574 49H62.3722ZM71.1548 37.3636L74.3935 46.8409H74.5241L77.7628 37.3636H79.6605L75.473 49H73.4446L69.2571 37.3636H71.1548ZM85.2784 40.2727V41.6364H80.5114V40.2727H85.2784ZM81.7898 38.1818H83.4886V46.4375C83.4886 46.767 83.5379 47.0152 83.6364 47.1818C83.7348 47.3447 83.8617 47.4564 84.017 47.517C84.1761 47.5739 84.3485 47.6023 84.5341 47.6023C84.6705 47.6023 84.7898 47.5928 84.892 47.5739C84.9943 47.5549 85.0739 47.5398 85.1307 47.5284L85.4375 48.9318C85.339 48.9697 85.1989 49.0076 85.017 49.0455C84.8352 49.0871 84.608 49.1098 84.3352 49.1136C83.8883 49.1212 83.4716 49.0417 83.0852 48.875C82.6989 48.7083 82.3864 48.4508 82.1477 48.1023C81.9091 47.7538 81.7898 47.3163 81.7898 46.7898V38.1818ZM90.7401 49.1761C89.9219 49.1761 89.2079 48.9886 88.598 48.6136C87.9882 48.2386 87.5147 47.714 87.1776 47.0398C86.8404 46.3655 86.6719 45.5777 86.6719 44.6761C86.6719 43.7708 86.8404 42.9792 87.1776 42.3011C87.5147 41.6231 87.9882 41.0966 88.598 40.7216C89.2079 40.3466 89.9219 40.1591 90.7401 40.1591C91.5582 40.1591 92.2723 40.3466 92.8821 40.7216C93.492 41.0966 93.9654 41.6231 94.3026 42.3011C94.6397 42.9792 94.8082 43.7708 94.8082 44.6761C94.8082 45.5777 94.6397 46.3655 94.3026 47.0398C93.9654 47.714 93.492 48.2386 92.8821 48.6136C92.2723 48.9886 91.5582 49.1761 90.7401 49.1761ZM90.7457 47.75C91.276 47.75 91.7154 47.6098 92.0639 47.3295C92.4124 47.0492 92.67 46.6761 92.8366 46.2102C93.0071 45.7443 93.0923 45.2311 93.0923 44.6705C93.0923 44.1136 93.0071 43.6023 92.8366 43.1364C92.67 42.6667 92.4124 42.2898 92.0639 42.0057C91.7154 41.7216 91.276 41.5795 90.7457 41.5795C90.2116 41.5795 89.7685 41.7216 89.4162 42.0057C89.0677 42.2898 88.8082 42.6667 88.6378 43.1364C88.4711 43.6023 88.3878 44.1136 88.3878 44.6705C88.3878 45.2311 88.4711 45.7443 88.6378 46.2102C88.8082 46.6761 89.0677 47.0492 89.4162 47.3295C89.7685 47.6098 90.2116 47.75 90.7457 47.75ZM98.4034 37.3636V49H96.7045V37.3636H98.4034ZM104.45 49.1761C103.59 49.1761 102.85 48.9924 102.229 48.625C101.611 48.2538 101.134 47.733 100.797 47.0625C100.464 46.3883 100.297 45.5985 100.297 44.6932C100.297 43.7992 100.464 43.0114 100.797 42.3295C101.134 41.6477 101.604 41.1155 102.206 40.733C102.812 40.3504 103.52 40.1591 104.331 40.1591C104.823 40.1591 105.301 40.2405 105.763 40.4034C106.225 40.5663 106.64 40.822 107.007 41.1705C107.375 41.5189 107.664 41.9716 107.876 42.5284C108.089 43.0814 108.195 43.7538 108.195 44.5455V45.1477H101.257V43.875H106.53C106.53 43.428 106.439 43.0322 106.257 42.6875C106.075 42.339 105.82 42.0644 105.49 41.8636C105.164 41.6629 104.782 41.5625 104.342 41.5625C103.865 41.5625 103.448 41.6799 103.092 41.9148C102.74 42.1458 102.467 42.4489 102.274 42.8239C102.085 43.1951 101.99 43.5985 101.99 44.0341V45.0284C101.99 45.6117 102.092 46.108 102.297 46.517C102.505 46.9261 102.795 47.2386 103.166 47.4545C103.537 47.6667 103.971 47.7727 104.467 47.7727C104.789 47.7727 105.083 47.7273 105.348 47.6364C105.613 47.5417 105.842 47.4015 106.036 47.2159C106.229 47.0303 106.376 46.8011 106.479 46.5284L108.087 46.8182C107.958 47.2917 107.727 47.7064 107.393 48.0625C107.064 48.4148 106.649 48.6894 106.149 48.8864C105.653 49.0795 105.087 49.1761 104.45 49.1761ZM113.347 49.1705C112.642 49.1705 112.013 48.9905 111.46 48.6307C110.911 48.267 110.479 47.75 110.165 47.0795C109.854 46.4053 109.699 45.5966 109.699 44.6534C109.699 43.7102 109.856 42.9034 110.17 42.233C110.489 41.5625 110.924 41.0492 111.477 40.6932C112.03 40.3371 112.657 40.1591 113.358 40.1591C113.9 40.1591 114.335 40.25 114.665 40.4318C114.998 40.6098 115.256 40.8182 115.438 41.0568C115.623 41.2955 115.767 41.5057 115.869 41.6875H115.972V37.3636H117.67V49H116.011V47.642H115.869C115.767 47.8277 115.619 48.0398 115.426 48.2784C115.237 48.517 114.975 48.7254 114.642 48.9034C114.309 49.0814 113.877 49.1705 113.347 49.1705ZM113.722 47.7216C114.21 47.7216 114.623 47.5928 114.96 47.3352C115.301 47.0739 115.559 46.7121 115.733 46.25C115.911 45.7879 116 45.25 116 44.6364C116 44.0303 115.913 43.5 115.739 43.0455C115.564 42.5909 115.309 42.2367 114.972 41.983C114.634 41.7292 114.218 41.6023 113.722 41.6023C113.21 41.6023 112.784 41.7348 112.443 42C112.102 42.2652 111.845 42.6269 111.67 43.0852C111.5 43.5436 111.415 44.0606 111.415 44.6364C111.415 45.2197 111.502 45.7443 111.676 46.2102C111.85 46.6761 112.108 47.0455 112.449 47.3182C112.794 47.5871 113.218 47.7216 113.722 47.7216ZM123.771 49.1761C122.953 49.1761 122.239 48.9886 121.629 48.6136C121.019 48.2386 120.546 47.714 120.209 47.0398C119.872 46.3655 119.703 45.5777 119.703 44.6761C119.703 43.7708 119.872 42.9792 120.209 42.3011C120.546 41.6231 121.019 41.0966 121.629 40.7216C122.239 40.3466 122.953 40.1591 123.771 40.1591C124.589 40.1591 125.304 40.3466 125.913 40.7216C126.523 41.0966 126.997 41.6231 127.334 42.3011C127.671 42.9792 127.839 43.7708 127.839 44.6761C127.839 45.5777 127.671 46.3655 127.334 47.0398C126.997 47.714 126.523 48.2386 125.913 48.6136C125.304 48.9886 124.589 49.1761 123.771 49.1761ZM123.777 47.75C124.307 47.75 124.747 47.6098 125.095 47.3295C125.444 47.0492 125.701 46.6761 125.868 46.2102C126.038 45.7443 126.124 45.2311 126.124 44.6705C126.124 44.1136 126.038 43.6023 125.868 43.1364C125.701 42.6667 125.444 42.2898 125.095 42.0057C124.747 41.7216 124.307 41.5795 123.777 41.5795C123.243 41.5795 122.8 41.7216 122.447 42.0057C122.099 42.2898 121.839 42.6667 121.669 43.1364C121.502 43.6023 121.419 44.1136 121.419 44.6705C121.419 45.2311 121.502 45.7443 121.669 46.2102C121.839 46.6761 122.099 47.0492 122.447 47.3295C122.8 47.6098 123.243 47.75 123.777 47.75Z" fill="#FFB271"/>
</svg>
