<svg width="151" height="53" viewBox="0 0 151 53" fill="none" xmlns="http://www.w3.org/2000/svg">
<path d="M62.892 0.90909V30H57.5795L44.9233 11.6903H44.7102V30H38.5597V0.90909H43.9574L56.5142 19.2045H56.7699V0.90909H62.892ZM73.2294 0.90909L80.2607 23.0114H80.5305L87.576 0.90909H94.3942L84.3658 30H76.4396L66.397 0.90909H73.2294ZM96.7876 5.98011V0.90909H120.68V5.98011H111.773V30H105.694V5.98011H96.7876Z" fill="#FF7400"/>
<path d="M9.67045 37.3636V49H8.05682L2.14205 40.4659H2.03409V49H0.278409V37.3636H1.90341L7.82386 45.9091H7.93182V37.3636H9.67045ZM15.8565 49.1761C14.9967 49.1761 14.2562 48.9924 13.6349 48.625C13.0175 48.2538 12.5402 47.733 12.2031 47.0625C11.8698 46.3883 11.7031 45.5985 11.7031 44.6932C11.7031 43.7992 11.8698 43.0114 12.2031 42.3295C12.5402 41.6477 13.0099 41.1155 13.6122 40.733C14.2183 40.3504 14.9266 40.1591 15.7372 40.1591C16.2296 40.1591 16.7069 40.2405 17.169 40.4034C17.6312 40.5663 18.0459 40.822 18.4134 41.1705C18.7808 41.5189 19.0705 41.9716 19.2827 42.5284C19.4948 43.0814 19.6009 43.7538 19.6009 44.5455V45.1477H12.6634V43.875H17.9361C17.9361 43.428 17.8452 43.0322 17.6634 42.6875C17.4815 42.339 17.2259 42.0644 16.8963 41.8636C16.5705 41.6629 16.188 41.5625 15.7486 41.5625C15.2713 41.5625 14.8546 41.6799 14.4986 41.9148C14.1463 42.1458 13.8736 42.4489 13.6804 42.8239C13.491 43.1951 13.3963 43.5985 13.3963 44.0341V45.0284C13.3963 45.6117 13.4986 46.108 13.7031 46.517C13.9115 46.9261 14.2012 47.2386 14.5724 47.4545C14.9437 47.6667 15.3774 47.7727 15.8736 47.7727C16.1955 47.7727 16.4891 47.7273 16.7543 47.6364C17.0194 47.5417 17.2486 47.4015 17.4418 47.2159C17.6349 47.0303 17.7827 46.8011 17.8849 46.5284L19.4929 46.8182C19.3641 47.2917 19.133 47.7064 18.7997 48.0625C18.4702 48.4148 18.0554 48.6894 17.5554 48.8864C17.0592 49.0795 16.4929 49.1761 15.8565 49.1761ZM25.5597 40.2727V41.6364H20.7926V40.2727H25.5597ZM22.071 38.1818H23.7699V46.4375C23.7699 46.767 23.8191 47.0152 23.9176 47.1818C24.0161 47.3447 24.143 47.4564 24.2983 47.517C24.4574 47.5739 24.6297 47.6023 24.8153 47.6023C24.9517 47.6023 25.071 47.5928 25.1733 47.5739C25.2756 47.5549 25.3551 47.5398 25.4119 47.5284L25.7188 48.9318C25.6203 48.9697 25.4801 49.0076 25.2983 49.0455C25.1165 49.0871 24.8892 49.1098 24.6165 49.1136C24.1695 49.1212 23.7528 49.0417 23.3665 48.875C22.9801 48.7083 22.6676 48.4508 22.429 48.1023C22.1903 47.7538 22.071 47.3163 22.071 46.7898V38.1818ZM29.331 49L26.7628 40.2727H28.5185L30.2287 46.6818H30.3139L32.0298 40.2727H33.7855L35.4901 46.6534H35.5753L37.2741 40.2727H39.0298L36.4673 49H34.7344L32.9616 42.6989H32.831L31.0582 49H29.331ZM44.0526 49.1761C43.2344 49.1761 42.5204 48.9886 41.9105 48.6136C41.3007 48.2386 40.8272 47.714 40.4901 47.0398C40.1529 46.3655 39.9844 45.5777 39.9844 44.6761C39.9844 43.7708 40.1529 42.9792 40.4901 42.3011C40.8272 41.6231 41.3007 41.0966 41.9105 40.7216C42.5204 40.3466 43.2344 40.1591 44.0526 40.1591C44.8707 40.1591 45.5848 40.3466 46.1946 40.7216C46.8045 41.0966 47.2779 41.6231 47.6151 42.3011C47.9522 42.9792 48.1207 43.7708 48.1207 44.6761C48.1207 45.5777 47.9522 46.3655 47.6151 47.0398C47.2779 47.714 46.8045 48.2386 46.1946 48.6136C45.5848 48.9886 44.8707 49.1761 44.0526 49.1761ZM44.0582 47.75C44.5885 47.75 45.0279 47.6098 45.3764 47.3295C45.7249 47.0492 45.9825 46.6761 46.1491 46.2102C46.3196 45.7443 46.4048 45.2311 46.4048 44.6705C46.4048 44.1136 46.3196 43.6023 46.1491 43.1364C45.9825 42.6667 45.7249 42.2898 45.3764 42.0057C45.0279 41.7216 44.5885 41.5795 44.0582 41.5795C43.5241 41.5795 43.081 41.7216 42.7287 42.0057C42.3802 42.2898 42.1207 42.6667 41.9503 43.1364C41.7836 43.6023 41.7003 44.1136 41.7003 44.6705C41.7003 45.2311 41.7836 45.7443 41.9503 46.2102C42.1207 46.6761 42.3802 47.0492 42.7287 47.3295C43.081 47.6098 43.5241 47.75 44.0582 47.75ZM50.017 49V40.2727H51.6591V41.6591H51.75C51.9091 41.1894 52.1894 40.8201 52.5909 40.5511C52.9962 40.2784 53.4545 40.142 53.9659 40.142C54.072 40.142 54.197 40.1458 54.3409 40.1534C54.4886 40.161 54.6042 40.1705 54.6875 40.1818V41.8068C54.6193 41.7879 54.4981 41.767 54.3239 41.7443C54.1496 41.7178 53.9754 41.7045 53.8011 41.7045C53.3996 41.7045 53.0417 41.7898 52.7273 41.9602C52.4167 42.1269 52.1705 42.3598 51.9886 42.6591C51.8068 42.9545 51.7159 43.2917 51.7159 43.6705V49H50.017ZM57.7202 46.0398L57.7088 43.9659H58.0043L61.4815 40.2727H63.5156L59.5497 44.4773H59.2827L57.7202 46.0398ZM56.1577 49V37.3636H57.8565V49H56.1577ZM61.669 49L58.544 44.8523L59.7145 43.6648L63.7543 49H61.669ZM65.0639 49V40.2727H66.7628V49H65.0639ZM65.9219 38.9261C65.6264 38.9261 65.3726 38.8277 65.1605 38.6307C64.9522 38.4299 64.848 38.1913 64.848 37.9148C64.848 37.6345 64.9522 37.3958 65.1605 37.1989C65.3726 36.9981 65.6264 36.8977 65.9219 36.8977C66.2173 36.8977 66.4692 36.9981 66.6776 37.1989C66.8897 37.3958 66.9957 37.6345 66.9957 37.9148C66.9957 38.1913 66.8897 38.4299 66.6776 38.6307C66.4692 38.8277 66.2173 38.9261 65.9219 38.9261ZM70.7472 43.8182V49H69.0483V40.2727H70.679V41.6932H70.7869C70.9877 41.2311 71.3021 40.8598 71.7301 40.5795C72.1619 40.2992 72.7055 40.1591 73.3608 40.1591C73.9555 40.1591 74.4763 40.2841 74.9233 40.5341C75.3703 40.7803 75.7169 41.1477 75.9631 41.6364C76.2093 42.125 76.3324 42.7292 76.3324 43.4489V49H74.6335V43.6534C74.6335 43.0208 74.4688 42.5265 74.1392 42.1705C73.8097 41.8106 73.357 41.6307 72.7812 41.6307C72.3873 41.6307 72.0369 41.7159 71.7301 41.8864C71.4271 42.0568 71.1866 42.3068 71.0085 42.6364C70.8343 42.9621 70.7472 43.3561 70.7472 43.8182ZM82.2699 52.4545C81.5767 52.4545 80.9801 52.3636 80.4801 52.1818C79.9839 52 79.5786 51.7595 79.2642 51.4602C78.9498 51.161 78.715 50.8333 78.5597 50.4773L80.0199 49.875C80.1222 50.0417 80.2585 50.2178 80.429 50.4034C80.6032 50.5928 80.8381 50.7538 81.1335 50.8864C81.4328 51.0189 81.8172 51.0852 82.2869 51.0852C82.9309 51.0852 83.4631 50.928 83.8835 50.6136C84.304 50.303 84.5142 49.8068 84.5142 49.125V47.4091H84.4062C84.304 47.5947 84.1563 47.8011 83.9631 48.0284C83.7737 48.2557 83.5123 48.4527 83.179 48.6193C82.8456 48.786 82.4119 48.8693 81.8778 48.8693C81.1884 48.8693 80.5672 48.7083 80.0142 48.3864C79.465 48.0606 79.0294 47.5814 78.7074 46.9489C78.3892 46.3125 78.2301 45.5303 78.2301 44.6023C78.2301 43.6742 78.3873 42.8788 78.7017 42.2159C79.0199 41.553 79.4555 41.0455 80.0085 40.6932C80.5616 40.3371 81.1884 40.1591 81.8892 40.1591C82.4309 40.1591 82.8684 40.25 83.2017 40.4318C83.535 40.6098 83.7945 40.8182 83.9801 41.0568C84.1695 41.2955 84.3153 41.5057 84.4176 41.6875H84.5426V40.2727H86.2074V49.1932C86.2074 49.9432 86.0331 50.5587 85.6847 51.0398C85.3362 51.5208 84.8646 51.8769 84.2699 52.108C83.679 52.339 83.0123 52.4545 82.2699 52.4545ZM82.2528 47.4602C82.7415 47.4602 83.1544 47.3466 83.4915 47.1193C83.8324 46.8883 84.09 46.5587 84.2642 46.1307C84.4422 45.6989 84.5312 45.1818 84.5312 44.5795C84.5312 43.9924 84.4441 43.4754 84.2699 43.0284C84.0956 42.5814 83.84 42.233 83.5028 41.983C83.1657 41.7292 82.7491 41.6023 82.2528 41.6023C81.7415 41.6023 81.3153 41.7348 80.9744 42C80.6335 42.2614 80.3759 42.6174 80.2017 43.0682C80.0313 43.5189 79.946 44.0227 79.946 44.5795C79.946 45.1515 80.0331 45.6534 80.2074 46.0852C80.3816 46.517 80.6392 46.8542 80.9801 47.0966C81.3248 47.339 81.7491 47.4602 82.2528 47.4602ZM93.8736 37.3636L97.1122 46.8409H97.2429L100.482 37.3636H102.379L98.1918 49H96.1634L91.9759 37.3636H93.8736ZM107.997 40.2727V41.6364H103.23V40.2727H107.997ZM104.509 38.1818H106.207V46.4375C106.207 46.767 106.257 47.0152 106.355 47.1818C106.454 47.3447 106.58 47.4564 106.736 47.517C106.895 47.5739 107.067 47.6023 107.253 47.6023C107.389 47.6023 107.509 47.5928 107.611 47.5739C107.713 47.5549 107.793 47.5398 107.849 47.5284L108.156 48.9318C108.058 48.9697 107.918 49.0076 107.736 49.0455C107.554 49.0871 107.327 49.1098 107.054 49.1136C106.607 49.1212 106.19 49.0417 105.804 48.875C105.418 48.7083 105.105 48.4508 104.866 48.1023C104.628 47.7538 104.509 47.3163 104.509 46.7898V38.1818ZM113.459 49.1761C112.641 49.1761 111.927 48.9886 111.317 48.6136C110.707 48.2386 110.233 47.714 109.896 47.0398C109.559 46.3655 109.391 45.5777 109.391 44.6761C109.391 43.7708 109.559 42.9792 109.896 42.3011C110.233 41.6231 110.707 41.0966 111.317 40.7216C111.927 40.3466 112.641 40.1591 113.459 40.1591C114.277 40.1591 114.991 40.3466 115.601 40.7216C116.211 41.0966 116.684 41.6231 117.021 42.3011C117.358 42.9792 117.527 43.7708 117.527 44.6761C117.527 45.5777 117.358 46.3655 117.021 47.0398C116.684 47.714 116.211 48.2386 115.601 48.6136C114.991 48.9886 114.277 49.1761 113.459 49.1761ZM113.464 47.75C113.995 47.75 114.434 47.6098 114.783 47.3295C115.131 47.0492 115.389 46.6761 115.555 46.2102C115.726 45.7443 115.811 45.2311 115.811 44.6705C115.811 44.1136 115.726 43.6023 115.555 43.1364C115.389 42.6667 115.131 42.2898 114.783 42.0057C114.434 41.7216 113.995 41.5795 113.464 41.5795C112.93 41.5795 112.487 41.7216 112.135 42.0057C111.786 42.2898 111.527 42.6667 111.357 43.1364C111.19 43.6023 111.107 44.1136 111.107 44.6705C111.107 45.2311 111.19 45.7443 111.357 46.2102C111.527 46.6761 111.786 47.0492 112.135 47.3295C112.487 47.6098 112.93 47.75 113.464 47.75ZM121.122 37.3636V49H119.423V37.3636H121.122ZM127.169 49.1761C126.309 49.1761 125.569 48.9924 124.947 48.625C124.33 48.2538 123.853 47.733 123.516 47.0625C123.182 46.3883 123.016 45.5985 123.016 44.6932C123.016 43.7992 123.182 43.0114 123.516 42.3295C123.853 41.6477 124.322 41.1155 124.925 40.733C125.531 40.3504 126.239 40.1591 127.05 40.1591C127.542 40.1591 128.019 40.2405 128.482 40.4034C128.944 40.5663 129.358 40.822 129.726 41.1705C130.093 41.5189 130.383 41.9716 130.595 42.5284C130.807 43.0814 130.913 43.7538 130.913 44.5455V45.1477H123.976V43.875H129.249C129.249 43.428 129.158 43.0322 128.976 42.6875C128.794 42.339 128.538 42.0644 128.209 41.8636C127.883 41.6629 127.5 41.5625 127.061 41.5625C126.584 41.5625 126.167 41.6799 125.811 41.9148C125.459 42.1458 125.186 42.4489 124.993 42.8239C124.804 43.1951 124.709 43.5985 124.709 44.0341V45.0284C124.709 45.6117 124.811 46.108 125.016 46.517C125.224 46.9261 125.514 47.2386 125.885 47.4545C126.256 47.6667 126.69 47.7727 127.186 47.7727C127.508 47.7727 127.802 47.7273 128.067 47.6364C128.332 47.5417 128.561 47.4015 128.754 47.2159C128.947 47.0303 129.095 46.8011 129.197 46.5284L130.805 46.8182C130.677 47.2917 130.446 47.7064 130.112 48.0625C129.783 48.4148 129.368 48.6894 128.868 48.8864C128.372 49.0795 127.805 49.1761 127.169 49.1761ZM136.065 49.1705C135.361 49.1705 134.732 48.9905 134.179 48.6307C133.63 48.267 133.198 47.75 132.884 47.0795C132.573 46.4053 132.418 45.5966 132.418 44.6534C132.418 43.7102 132.575 42.9034 132.889 42.233C133.207 41.5625 133.643 41.0492 134.196 40.6932C134.749 40.3371 135.376 40.1591 136.077 40.1591C136.618 40.1591 137.054 40.25 137.384 40.4318C137.717 40.6098 137.974 40.8182 138.156 41.0568C138.342 41.2955 138.486 41.5057 138.588 41.6875H138.69V37.3636H140.389V49H138.73V47.642H138.588C138.486 47.8277 138.338 48.0398 138.145 48.2784C137.955 48.517 137.694 48.7254 137.361 48.9034C137.027 49.0814 136.596 49.1705 136.065 49.1705ZM136.44 47.7216C136.929 47.7216 137.342 47.5928 137.679 47.3352C138.02 47.0739 138.277 46.7121 138.452 46.25C138.63 45.7879 138.719 45.25 138.719 44.6364C138.719 44.0303 138.632 43.5 138.457 43.0455C138.283 42.5909 138.027 42.2367 137.69 41.983C137.353 41.7292 136.937 41.6023 136.44 41.6023C135.929 41.6023 135.503 41.7348 135.162 42C134.821 42.2652 134.563 42.6269 134.389 43.0852C134.219 43.5436 134.134 44.0606 134.134 44.6364C134.134 45.2197 134.221 45.7443 134.395 46.2102C134.569 46.6761 134.827 47.0455 135.168 47.3182C135.512 47.5871 135.937 47.7216 136.44 47.7216ZM146.49 49.1761C145.672 49.1761 144.958 48.9886 144.348 48.6136C143.738 48.2386 143.265 47.714 142.928 47.0398C142.59 46.3655 142.422 45.5777 142.422 44.6761C142.422 43.7708 142.59 42.9792 142.928 42.3011C143.265 41.6231 143.738 41.0966 144.348 40.7216C144.958 40.3466 145.672 40.1591 146.49 40.1591C147.308 40.1591 148.022 40.3466 148.632 40.7216C149.242 41.0966 149.715 41.6231 150.053 42.3011C150.39 42.9792 150.558 43.7708 150.558 44.6761C150.558 45.5777 150.39 46.3655 150.053 47.0398C149.715 47.714 149.242 48.2386 148.632 48.6136C148.022 48.9886 147.308 49.1761 146.49 49.1761ZM146.496 47.75C147.026 47.75 147.465 47.6098 147.814 47.3295C148.162 47.0492 148.42 46.6761 148.587 46.2102C148.757 45.7443 148.842 45.2311 148.842 44.6705C148.842 44.1136 148.757 43.6023 148.587 43.1364C148.42 42.6667 148.162 42.2898 147.814 42.0057C147.465 41.7216 147.026 41.5795 146.496 41.5795C145.962 41.5795 145.518 41.7216 145.166 42.0057C144.818 42.2898 144.558 42.6667 144.388 43.1364C144.221 43.6023 144.138 44.1136 144.138 44.6705C144.138 45.2311 144.221 45.7443 144.388 46.2102C144.558 46.6761 144.818 47.0492 145.166 47.3295C145.518 47.6098 145.962 47.75 146.496 47.75Z" fill="#FFB271"/>
</svg>
