<svg width="217" height="31" viewBox="0 0 217 31" fill="none" xmlns="http://www.w3.org/2000/svg">
<path d="M24.8608 0.90909V30H19.5483L6.89205 11.6903H6.67898V30H0.528409V0.90909H5.92614L18.483 19.2045H18.7386V0.90909H24.8608ZM35.1982 0.90909L42.2294 23.0114H42.4993L49.5447 0.90909H56.3629L46.3345 30H38.4084L28.3658 0.90909H35.1982ZM58.7564 5.98011V0.90909H82.6484V5.98011H73.7422V30H67.6626V5.98011H58.7564Z" fill="#FF7400"/>
<path d="M99.2251 18.3636V30H97.6115L91.6967 21.4659H91.5888V30H89.8331V18.3636H91.4581L97.3786 26.9091H97.4865V18.3636H99.2251ZM105.411 30.1761C104.551 30.1761 103.811 29.9924 103.19 29.625C102.572 29.2538 102.095 28.733 101.758 28.0625C101.424 27.3883 101.258 26.5985 101.258 25.6932C101.258 24.7992 101.424 24.0114 101.758 23.3295C102.095 22.6477 102.565 22.1155 103.167 21.733C103.773 21.3504 104.481 21.1591 105.292 21.1591C105.784 21.1591 106.262 21.2405 106.724 21.4034C107.186 21.5663 107.601 21.822 107.968 22.1705C108.335 22.5189 108.625 22.9716 108.837 23.5284C109.049 24.0814 109.156 24.7538 109.156 25.5455V26.1477H102.218V24.875H107.491C107.491 24.428 107.4 24.0322 107.218 23.6875C107.036 23.339 106.781 23.0644 106.451 22.8636C106.125 22.6629 105.743 22.5625 105.303 22.5625C104.826 22.5625 104.409 22.6799 104.053 22.9148C103.701 23.1458 103.428 23.4489 103.235 23.8239C103.046 24.1951 102.951 24.5985 102.951 25.0341V26.0284C102.951 26.6117 103.053 27.108 103.258 27.517C103.466 27.9261 103.756 28.2386 104.127 28.4545C104.498 28.6667 104.932 28.7727 105.428 28.7727C105.75 28.7727 106.044 28.7273 106.309 28.6364C106.574 28.5417 106.803 28.4015 106.996 28.2159C107.19 28.0303 107.337 27.8011 107.44 27.5284L109.048 27.8182C108.919 28.2917 108.688 28.7064 108.354 29.0625C108.025 29.4148 107.61 29.6894 107.11 29.8864C106.614 30.0795 106.048 30.1761 105.411 30.1761ZM115.114 21.2727V22.6364H110.347V21.2727H115.114ZM111.626 19.1818H113.325V27.4375C113.325 27.767 113.374 28.0152 113.472 28.1818C113.571 28.3447 113.698 28.4564 113.853 28.517C114.012 28.5739 114.184 28.6023 114.37 28.6023C114.506 28.6023 114.626 28.5928 114.728 28.5739C114.83 28.5549 114.91 28.5398 114.967 28.5284L115.273 29.9318C115.175 29.9697 115.035 30.0076 114.853 30.0455C114.671 30.0871 114.444 30.1098 114.171 30.1136C113.724 30.1212 113.308 30.0417 112.921 29.875C112.535 29.7083 112.222 29.4508 111.984 29.1023C111.745 28.7538 111.626 28.3163 111.626 27.7898V19.1818ZM118.886 30L116.317 21.2727H118.073L119.783 27.6818H119.869L121.585 21.2727H123.34L125.045 27.6534H125.13L126.829 21.2727H128.585L126.022 30H124.289L122.516 23.6989H122.386L120.613 30H118.886ZM133.607 30.1761C132.789 30.1761 132.075 29.9886 131.465 29.6136C130.855 29.2386 130.382 28.714 130.045 28.0398C129.708 27.3655 129.539 26.5777 129.539 25.6761C129.539 24.7708 129.708 23.9792 130.045 23.3011C130.382 22.6231 130.855 22.0966 131.465 21.7216C132.075 21.3466 132.789 21.1591 133.607 21.1591C134.425 21.1591 135.139 21.3466 135.749 21.7216C136.359 22.0966 136.833 22.6231 137.17 23.3011C137.507 23.9792 137.675 24.7708 137.675 25.6761C137.675 26.5777 137.507 27.3655 137.17 28.0398C136.833 28.714 136.359 29.2386 135.749 29.6136C135.139 29.9886 134.425 30.1761 133.607 30.1761ZM133.613 28.75C134.143 28.75 134.583 28.6098 134.931 28.3295C135.28 28.0492 135.537 27.6761 135.704 27.2102C135.874 26.7443 135.96 26.2311 135.96 25.6705C135.96 25.1136 135.874 24.6023 135.704 24.1364C135.537 23.6667 135.28 23.2898 134.931 23.0057C134.583 22.7216 134.143 22.5795 133.613 22.5795C133.079 22.5795 132.636 22.7216 132.283 23.0057C131.935 23.2898 131.675 23.6667 131.505 24.1364C131.338 24.6023 131.255 25.1136 131.255 25.6705C131.255 26.2311 131.338 26.7443 131.505 27.2102C131.675 27.6761 131.935 28.0492 132.283 28.3295C132.636 28.6098 133.079 28.75 133.613 28.75ZM139.572 30V21.2727H141.214V22.6591H141.305C141.464 22.1894 141.744 21.8201 142.146 21.5511C142.551 21.2784 143.009 21.142 143.521 21.142C143.627 21.142 143.752 21.1458 143.896 21.1534C144.043 21.161 144.159 21.1705 144.242 21.1818V22.8068C144.174 22.7879 144.053 22.767 143.879 22.7443C143.704 22.7178 143.53 22.7045 143.356 22.7045C142.954 22.7045 142.596 22.7898 142.282 22.9602C141.971 23.1269 141.725 23.3598 141.543 23.6591C141.362 23.9545 141.271 24.2917 141.271 24.6705V30H139.572ZM147.275 27.0398L147.263 24.9659H147.559L151.036 21.2727H153.07L149.104 25.4773H148.837L147.275 27.0398ZM145.712 30V18.3636H147.411V30H145.712ZM151.224 30L148.099 25.8523L149.269 24.6648L153.309 30H151.224ZM160.006 18.3636L163.245 27.8409H163.376L166.614 18.3636H168.512L164.325 30H162.296L158.109 18.3636H160.006ZM174.13 21.2727V22.6364H169.363V21.2727H174.13ZM170.641 19.1818H172.34V27.4375C172.34 27.767 172.389 28.0152 172.488 28.1818C172.586 28.3447 172.713 28.4564 172.869 28.517C173.028 28.5739 173.2 28.6023 173.386 28.6023C173.522 28.6023 173.641 28.5928 173.744 28.5739C173.846 28.5549 173.925 28.5398 173.982 28.5284L174.289 29.9318C174.191 29.9697 174.05 30.0076 173.869 30.0455C173.687 30.0871 173.46 30.1098 173.187 30.1136C172.74 30.1212 172.323 30.0417 171.937 29.875C171.55 29.7083 171.238 29.4508 170.999 29.1023C170.761 28.7538 170.641 28.3163 170.641 27.7898V19.1818ZM179.592 30.1761C178.773 30.1761 178.059 29.9886 177.45 29.6136C176.84 29.2386 176.366 28.714 176.029 28.0398C175.692 27.3655 175.523 26.5777 175.523 25.6761C175.523 24.7708 175.692 23.9792 176.029 23.3011C176.366 22.6231 176.84 22.0966 177.45 21.7216C178.059 21.3466 178.773 21.1591 179.592 21.1591C180.41 21.1591 181.124 21.3466 181.734 21.7216C182.344 22.0966 182.817 22.6231 183.154 23.3011C183.491 23.9792 183.66 24.7708 183.66 25.6761C183.66 26.5777 183.491 27.3655 183.154 28.0398C182.817 28.714 182.344 29.2386 181.734 29.6136C181.124 29.9886 180.41 30.1761 179.592 30.1761ZM179.597 28.75C180.128 28.75 180.567 28.6098 180.915 28.3295C181.264 28.0492 181.522 27.6761 181.688 27.2102C181.859 26.7443 181.944 26.2311 181.944 25.6705C181.944 25.1136 181.859 24.6023 181.688 24.1364C181.522 23.6667 181.264 23.2898 180.915 23.0057C180.567 22.7216 180.128 22.5795 179.597 22.5795C179.063 22.5795 178.62 22.7216 178.268 23.0057C177.919 23.2898 177.66 23.6667 177.489 24.1364C177.323 24.6023 177.239 25.1136 177.239 25.6705C177.239 26.2311 177.323 26.7443 177.489 27.2102C177.66 27.6761 177.919 28.0492 178.268 28.3295C178.62 28.6098 179.063 28.75 179.597 28.75ZM187.255 18.3636V30H185.556V18.3636H187.255ZM193.302 30.1761C192.442 30.1761 191.701 29.9924 191.08 29.625C190.463 29.2538 189.986 28.733 189.648 28.0625C189.315 27.3883 189.148 26.5985 189.148 25.6932C189.148 24.7992 189.315 24.0114 189.648 23.3295C189.986 22.6477 190.455 22.1155 191.058 21.733C191.664 21.3504 192.372 21.1591 193.183 21.1591C193.675 21.1591 194.152 21.2405 194.614 21.4034C195.076 21.5663 195.491 21.822 195.859 22.1705C196.226 22.5189 196.516 22.9716 196.728 23.5284C196.94 24.0814 197.046 24.7538 197.046 25.5455V26.1477H190.109V24.875H195.381C195.381 24.428 195.29 24.0322 195.109 23.6875C194.927 23.339 194.671 23.0644 194.342 22.8636C194.016 22.6629 193.633 22.5625 193.194 22.5625C192.717 22.5625 192.3 22.6799 191.944 22.9148C191.592 23.1458 191.319 23.4489 191.126 23.8239C190.936 24.1951 190.842 24.5985 190.842 25.0341V26.0284C190.842 26.6117 190.944 27.108 191.148 27.517C191.357 27.9261 191.647 28.2386 192.018 28.4545C192.389 28.6667 192.823 28.7727 193.319 28.7727C193.641 28.7727 193.934 28.7273 194.2 28.6364C194.465 28.5417 194.694 28.4015 194.887 28.2159C195.08 28.0303 195.228 27.8011 195.33 27.5284L196.938 27.8182C196.809 28.2917 196.578 28.7064 196.245 29.0625C195.915 29.4148 195.501 29.6894 195.001 29.8864C194.504 30.0795 193.938 30.1761 193.302 30.1761ZM202.198 30.1705C201.494 30.1705 200.865 29.9905 200.312 29.6307C199.763 29.267 199.331 28.75 199.016 28.0795C198.706 27.4053 198.55 26.5966 198.55 25.6534C198.55 24.7102 198.708 23.9034 199.022 23.233C199.34 22.5625 199.776 22.0492 200.329 21.6932C200.882 21.3371 201.509 21.1591 202.21 21.1591C202.751 21.1591 203.187 21.25 203.516 21.4318C203.85 21.6098 204.107 21.8182 204.289 22.0568C204.475 22.2955 204.619 22.5057 204.721 22.6875H204.823V18.3636H206.522V30H204.863V28.642H204.721C204.619 28.8277 204.471 29.0398 204.278 29.2784C204.088 29.517 203.827 29.7254 203.494 29.9034C203.16 30.0814 202.728 30.1705 202.198 30.1705ZM202.573 28.7216C203.062 28.7216 203.475 28.5928 203.812 28.3352C204.153 28.0739 204.41 27.7121 204.585 27.25C204.763 26.7879 204.852 26.25 204.852 25.6364C204.852 25.0303 204.764 24.5 204.59 24.0455C204.416 23.5909 204.16 23.2367 203.823 22.983C203.486 22.7292 203.069 22.6023 202.573 22.6023C202.062 22.6023 201.636 22.7348 201.295 23C200.954 23.2652 200.696 23.6269 200.522 24.0852C200.352 24.5436 200.266 25.0606 200.266 25.6364C200.266 26.2197 200.353 26.7443 200.528 27.2102C200.702 27.6761 200.96 28.0455 201.3 28.3182C201.645 28.5871 202.069 28.7216 202.573 28.7216ZM212.623 30.1761C211.805 30.1761 211.091 29.9886 210.481 29.6136C209.871 29.2386 209.397 28.714 209.06 28.0398C208.723 27.3655 208.555 26.5777 208.555 25.6761C208.555 24.7708 208.723 23.9792 209.06 23.3011C209.397 22.6231 209.871 22.0966 210.481 21.7216C211.091 21.3466 211.805 21.1591 212.623 21.1591C213.441 21.1591 214.155 21.3466 214.765 21.7216C215.375 22.0966 215.848 22.6231 216.185 23.3011C216.522 23.9792 216.691 24.7708 216.691 25.6761C216.691 26.5777 216.522 27.3655 216.185 28.0398C215.848 28.714 215.375 29.2386 214.765 29.6136C214.155 29.9886 213.441 30.1761 212.623 30.1761ZM212.629 28.75C213.159 28.75 213.598 28.6098 213.947 28.3295C214.295 28.0492 214.553 27.6761 214.719 27.2102C214.89 26.7443 214.975 26.2311 214.975 25.6705C214.975 25.1136 214.89 24.6023 214.719 24.1364C214.553 23.6667 214.295 23.2898 213.947 23.0057C213.598 22.7216 213.159 22.5795 212.629 22.5795C212.094 22.5795 211.651 22.7216 211.299 23.0057C210.951 23.2898 210.691 23.6667 210.521 24.1364C210.354 24.6023 210.271 25.1136 210.271 25.6705C210.271 26.2311 210.354 26.7443 210.521 27.2102C210.691 27.6761 210.951 28.0492 211.299 28.3295C211.651 28.6098 212.094 28.75 212.629 28.75Z" fill="#FFB271"/>
</svg>
